#!OML:ASF H:\MichaelJackson\Top Level 1\Subject 1\Session 1\male.ASF
:FULLY-SPECIFIED
:DEGREES
1000
root -12.5333 16.4883 11.8131 -183.819 -229.264 -192.932
lowerback 3.37953 -5.05796 -4.27962
upperback 2.66122 -6.8644 6.1638
thorax 2.16353 -3.61678 8.91688
lowerneck 2.79632 -20.5577 -12.762
upperneck 4.39651 -28.451 13.0375
head 4.51913 -14.1677 4.01847
rclavicle -6.81645e-014 -8.69683e-016
rhumerus -34.2322 15.4435 -72.6227
rradius 59.8564
rwrist -0.228158
rhand -24.6301 -17.349
rfingers 7.12502
rthumb 1.86885 -47.3206
lclavicle -6.81645e-014 -8.69683e-016
lhumerus -16.073 -34.3671 59.7642
lradius 124.735
lwrist 39.1344
lhand -11.9837 10.8903
lfingers 7.12502
lthumb 14.0727 40.3938
rfemur -11.1118 -1.00951 11.4157
rtibia 53.665
rfoot 23.5714 -12.518
rtoes -7.56884
lfemur -30.8592 12.4083 -13.4528
ltibia 53.3194
lfoot -30.0676 -15.1443
ltoes 10.1294
1001
root -12.5702 16.4404 11.832 -183.855 -230.499 -193.392
lowerback 2.60161 -5.15185 -3.99899
upperback 2.51686 -6.97362 6.10639
thorax 2.42399 -3.6675 8.61934
lowerneck 3.00054 -20.5367 -12.7343
upperneck 4.55466 -28.4439 12.9199
head 4.51414 -14.1715 4.00245
rclavicle 9.13509e-014 -3.53961e-014
rhumerus -33.536 14.8634 -72.4877
rradius 57.0701
rwrist -0.350954
rhand -25.4408 -18.0959
rfingers 7.12502
rthumb 1.0858 -48.0728
lclavicle 9.13509e-014 -3.53961e-014
lhumerus -14.107 -33.2661 56.8841
lradius 126.982
lwrist 41.0656
lhand -14.6476 10.5473
lfingers 7.12502
lthumb 11.5046 40.2116
rfemur -9.85256 -1.97173 11.8841
rtibia 53.153
rfoot 19.3984 -10.2041
rtoes -12.8182
lfemur -31.8491 12.516 -13.372
ltibia 53.8324
lfoot -30.7139 -15.4054
ltoes 7.99764
1002
root -12.6004 16.423 11.8539 -183.803 -231.856 -193.494
lowerback 2.06899 -5.26609 -4.07677
upperback 2.38427 -7.12084 5.99664
thorax 2.60486 -3.74345 8.49225
lowerneck 3.46788 -20.5514 -12.8212
upperneck 4.55178 -28.5146 13.0069
head 4.47521 -14.2254 4.0748
rclavicle 4.73667e-015 7.05686e-015
rhumerus -32.8842 13.7659 -72.3026
rradius 54.3598
rwrist 0.439304
rhand -25.697 -18.7875
rfingers 7.12502
rthumb 0.838436 -48.7656
lclavicle 4.73667e-015 7.05686e-015
lhumerus -12.0686 -31.8504 54.0062
lradius 129.009
lwrist 43.2769
lhand -17.2064 10.7368
lfingers 7.12502
lthumb 9.03617 40.5233
rfemur -8.45931 -3.11007 11.9923
rtibia 52.2127
rfoot 15.3639 -10.0569
rtoes -9.44205
lfemur -32.518 12.0966 -13.4698
ltibia 54.2684
lfoot -31.002 -15.7173
ltoes 7.62154
1003
root -12.6233 16.4032 11.8661 -184.123 -233.165 -194.261
lowerback 1.4061 -5.38527 -3.53025
upperback 2.22939 -7.26548 5.97245
thorax 2.76463 -3.8008 8.0891
lowerneck 3.83769 -20.5552 -12.8779
upperneck 4.56967 -28.565 13.1115
head 4.45397 -14.2642 4.13988
rclavicle 3.04762e-014 -3.0588e-014
rhumerus -32.3392 12.7948 -72.2016
rradius 51.8267
rwrist 1.07195
rhand -26.1248 -19.5736
rfingers 7.12502
rthumb 0.425202 -49.5529
lclavicle 3.04762e-014 -3.0588e-014
lhumerus -9.93757 -30.15 51.1878
lradius 130.759
lwrist 45.5961
lhand -19.5615 10.7561
lfingers 7.12502
lthumb 6.76309 40.6281
rfemur -7.11958 -3.80653 12.6019
rtibia 50.6713
rfoot 12.7061 -10.6045
rtoes -9.33534
lfemur -33.4317 11.2788 -13.156
ltibia 54.768
lfoot -31.0231 -15.9617
ltoes 7.95376
1004
root -12.6463 16.377 11.8809 -184.66 -234.529 -195.146
lowerback 0.808564 -5.48544 -2.95785
upperback 2.13214 -7.3921 5.92973
thorax 2.93697 -3.84903 7.65677
lowerneck 4.10182 -20.6428 -12.9565
upperneck 4.74312 -28.7396 13.2531
head 4.52134 -14.3557 4.17815
rclavicle 1.29558e-013 -1.41137e-014
rhumerus -31.9021 11.3873 -71.9718
rradius 49.4518
rwrist 2.47071
rhand -26.0605 -20.0947
rfingers 7.12502
rthumb 0.48736 -50.0739
lclavicle 1.29558e-013 -1.41137e-014
lhumerus -7.67697 -28.2358 48.4263
lradius 132.128
lwrist 47.8651
lhand -21.9186 10.8789
lfingers 7.12502
lthumb 4.48737 40.8113
rfemur -5.59509 -4.83917 13.1231
rtibia 48.762
rfoot 10.8592 -11.3301
rtoes -13.1077
lfemur -34.2669 10.1871 -12.791
ltibia 55.2923
lfoot -31.0499 -15.9861
ltoes 8.02379
1005
root -12.6715 16.3437 11.8942 -185.47 -235.838 -196.395
lowerback 0.239003 -5.57496 -2.22647
upperback 2.01917 -7.51153 5.97698
thorax 3.06591 -3.88857 7.23604
lowerneck 4.10714 -20.7514 -13.0495
upperneck 5.17929 -28.9288 13.21
head 4.68552 -14.4404 4.12504
rclavicle 6.70029e-014 -2.81777e-014
rhumerus -31.6255 10.0406 -71.6951
rradius 47.2183
rwrist 3.92145
rhand -26.2225 -20.4741
rfingers 7.12502
rthumb 0.33081 -50.4535
lclavicle 6.70029e-014 -2.81777e-014
lhumerus -5.29914 -25.7081 45.7323
lradius 132.984
lwrist 50.4071
lhand -22.9454 10.7508
lfingers 7.12502
lthumb 3.49578 40.7018
rfemur -4.04529 -5.69912 14.0023
rtibia 46.6047
rfoot 9.53896 -12.189
rtoes -20.1745
lfemur -35.2516 8.96701 -12.2467
ltibia 55.9282
lfoot -31.15 -15.8584
ltoes 7.69926
1006
root -12.7003 16.3155 11.9012 -186.219 -237.069 -197.712
lowerback -0.303518 -5.6338 -1.60887
upperback 1.81991 -7.59511 6.14788
thorax 3.11632 -3.9118 7.02055
lowerneck 3.97633 -20.8456 -13.2777
upperneck 5.72375 -29.0934 13.0969
head 4.90953 -14.5074 4.04654
rclavicle 5.561e-014 -1.81391e-014
rhumerus -31.4132 8.68896 -71.1269
rradius 45.0388
rwrist 5.49292
rhand -26.1785 -20.422
rfingers 7.12502
rthumb 0.373354 -50.4014
lclavicle 5.561e-014 -1.81391e-014
lhumerus -3.26832 -22.8077 43.3861
lradius 133.574
lwrist 52.5239
lhand -23.2618 10.7616
lfingers 7.12502
lthumb 3.19031 40.7175
rfemur -2.72272 -6.30709 14.9835
rtibia 44.5299
rfoot 7.56262 -13.2876
rtoes -24.0296
lfemur -36.3983 7.67225 -11.7024
ltibia 56.5635
lfoot -31.1754 -15.591
ltoes 7.57333
